<?xml version="1.0" encoding="UTF-8"?>
<svg id="Camada_2" data-name="Camada 2" xmlns="http://www.w3.org/2000/svg" viewBox="0 0 35.02 8.63">
  <defs>
    <style>
      .cls-1 {
        fill: #fff;
      }

      .cls-2 {
        fill: #f39200;
      }
    </style>
  </defs>
  <g id="Camada_1-2" data-name="Camada 1">
    <g>
      <path class="cls-1" d="m6.08,4.17c-.22.4-.57.73-1.03.98s-1.04.37-1.73.37h-1.27v3.02H0V.12h3.32c.67,0,1.24.12,1.7.35.46.23.81.55,1.04.96.23.41.35.88.35,1.4,0,.49-.11.93-.34,1.34Zm-2.04-.56c.19-.18.29-.44.29-.78s-.1-.6-.29-.78c-.19-.18-.48-.28-.88-.28h-1.12v2.11h1.12c.39,0,.68-.09.88-.28Z"/>
      <path class="cls-2" d="m6.96,2.24V.1l8.42,3.05v2.38l-8.42,3.05v-2.17l6.16-2.08-6.16-2.08Z"/>
      <path class="cls-1" d="m23.87,8.54h-2.05l-3.43-5.2v5.2h-2.05V.12h2.05l3.43,5.22V.12h2.05v8.42Z"/>
      <path class="cls-1" d="m27.41.12v8.42h-2.05V.12h2.05Z"/>
      <path class="cls-1" d="m30.29,8.33c-.49-.2-.88-.5-1.17-.89s-.45-.86-.46-1.42h2.18c.03.31.14.55.32.71.18.16.42.25.72.25s.54-.07.72-.21c.18-.14.26-.33.26-.58,0-.21-.07-.38-.21-.52-.14-.14-.31-.25-.52-.34-.2-.09-.49-.19-.87-.3-.54-.17-.99-.34-1.33-.5s-.64-.42-.89-.74c-.25-.33-.37-.76-.37-1.28,0-.78.28-1.4.85-1.84s1.31-.67,2.22-.67,1.68.22,2.24.67.87,1.06.91,1.85h-2.22c-.02-.27-.12-.49-.3-.64-.18-.16-.42-.23-.71-.23-.25,0-.45.07-.6.2-.15.13-.23.32-.23.57,0,.27.13.48.38.64.26.15.66.32,1.2.49.54.18.99.36,1.33.53.34.17.63.41.88.73.25.32.37.73.37,1.24s-.12.92-.37,1.31c-.24.39-.6.7-1.06.94-.46.23-1.01.35-1.64.35s-1.17-.1-1.66-.3Z"/>
    </g>
  </g>
</svg>