<?xml version="1.0" encoding="UTF-8"?>
<svg id="Camada_2" data-name="Camada 2" xmlns="http://www.w3.org/2000/svg" viewBox="0 0 220.9 88.19">
  <defs>
    <style>
      .cls-1 {
        fill: #fff;
      }

      .cls-2 {
        fill: #f39200;
      }

      .cls-3 {
        fill: #f9b233;
      }
    </style>
  </defs>
  <g id="Camada_1-2" data-name="Camada 1">
    <g>
      <g>
        <path class="cls-1" d="m42.7,29.27c-1.57,2.84-3.99,5.12-7.24,6.86-3.26,1.74-7.3,2.61-12.13,2.61h-8.93v21.22H0V.84h23.33c4.72,0,8.7.81,11.96,2.44,3.26,1.63,5.7,3.88,7.33,6.74,1.63,2.86,2.44,6.15,2.44,9.86,0,3.42-.79,6.56-2.36,9.39Zm-14.32-3.92c1.35-1.29,2.02-3.12,2.02-5.47s-.68-4.18-2.02-5.48c-1.35-1.29-3.4-1.94-6.15-1.94h-7.83v14.82h7.83c2.75,0,4.8-.65,6.15-1.94Z"/>
        <path class="cls-3" d="m48.84,15.75V.67l59.12,21.39v16.68l-59.12,21.39v-15.24l43.2-14.57-43.2-14.57Z"/>
        <path class="cls-1" d="m167.51,59.96h-14.4l-24.09-36.47v36.47h-14.4V.84h14.4l24.09,36.63V.84h14.4v59.12Z"/>
        <path class="cls-1" d="m187.72,58.45c-3.43-1.41-6.16-3.48-8.21-6.23-2.05-2.75-3.13-6.06-3.24-9.94h15.33c.22,2.19.98,3.86,2.28,5.01,1.29,1.15,2.97,1.73,5.05,1.73s3.82-.49,5.05-1.47c1.23-.98,1.85-2.34,1.85-4.08,0-1.46-.49-2.67-1.47-3.62-.98-.95-2.19-1.74-3.62-2.36-1.43-.62-3.47-1.32-6.11-2.1-3.82-1.18-6.94-2.36-9.35-3.54-2.42-1.18-4.49-2.92-6.23-5.22-1.74-2.3-2.61-5.3-2.61-9.01,0-5.5,1.99-9.81,5.98-12.93,3.99-3.12,9.18-4.67,15.58-4.67s11.76,1.56,15.75,4.67c3.99,3.12,6.12,7.45,6.4,13.01h-15.58c-.11-1.91-.82-3.41-2.11-4.51-1.29-1.09-2.95-1.64-4.97-1.64-1.74,0-3.14.46-4.21,1.39-1.07.93-1.6,2.26-1.6,4,0,1.91.89,3.4,2.69,4.46,1.8,1.07,4.6,2.22,8.42,3.45,3.82,1.29,6.92,2.53,9.3,3.7s4.45,2.89,6.19,5.14c1.74,2.25,2.61,5.14,2.61,8.68s-.86,6.43-2.57,9.18c-1.71,2.75-4.2,4.94-7.45,6.57-3.26,1.63-7.1,2.44-11.54,2.44s-8.2-.7-11.62-2.1Z"/>
      </g>
      <polyline class="cls-2" points="107.97 38.74 48.84 60.13 48.84 44.89 107.97 24.95"/>
    </g>
    <g>
      <path class="cls-1" d="m62.73,82.17c-.22-.42-.52-.73-.9-.94-.38-.21-.83-.32-1.33-.32-.55,0-1.04.12-1.48.37s-.77.6-1.01,1.06c-.24.46-.37.98-.37,1.58s.12,1.13.37,1.59.58.81,1.01,1.06.92.37,1.48.37c.74,0,1.35-.21,1.81-.62.46-.42.75-.98.85-1.69h-3.13v-1.09h4.6v1.07c-.09.65-.32,1.24-.69,1.79s-.86.98-1.45,1.3c-.6.32-1.26.49-1.99.49-.78,0-1.5-.18-2.15-.55-.65-.36-1.16-.87-1.54-1.52-.38-.65-.57-1.38-.57-2.2s.19-1.55.57-2.2c.38-.65.9-1.15,1.55-1.52.65-.36,1.37-.55,2.14-.55.89,0,1.68.22,2.37.65.69.44,1.19,1.05,1.51,1.85h-1.64Z"/>
      <path class="cls-1" d="m83,86.41h-3.49l-.6,1.7h-1.43l2.99-8.35h1.58l2.99,8.35h-1.44l-.6-1.7Zm-.38-1.12l-1.36-3.88-1.37,3.88h2.72Z"/>
      <path class="cls-1" d="m107.12,79.78v8.34h-1.37v-5.71l-2.54,5.71h-.95l-2.56-5.71v5.71h-1.37v-8.34h1.48l2.93,6.54,2.92-6.54h1.46Z"/>
      <path class="cls-1" d="m122.28,79.78v8.34h-1.37v-8.34h1.37Z"/>
      <path class="cls-1" d="m142.94,88.12h-1.37l-4.12-6.23v6.23h-1.37v-8.35h1.37l4.12,6.22v-6.22h1.37v8.35Z"/>
      <path class="cls-1" d="m162.77,82.17c-.22-.42-.52-.73-.9-.94s-.83-.32-1.33-.32c-.55,0-1.04.12-1.48.37-.43.25-.77.6-1.01,1.06-.24.46-.37.98-.37,1.58s.12,1.13.37,1.59.58.81,1.01,1.06c.43.25.92.37,1.48.37.74,0,1.35-.21,1.81-.62s.75-.98.85-1.69h-3.13v-1.09h4.6v1.07c-.09.65-.32,1.24-.69,1.79s-.86.98-1.45,1.3c-.6.32-1.26.49-1.99.49-.78,0-1.5-.18-2.15-.55-.65-.36-1.16-.87-1.54-1.52-.38-.65-.57-1.38-.57-2.2s.19-1.55.57-2.2c.38-.65.9-1.15,1.55-1.52.65-.36,1.37-.55,2.14-.55.89,0,1.68.22,2.37.65.69.44,1.19,1.05,1.51,1.85h-1.64Z"/>
    </g>
  </g>
</svg>